<?xml version="1.0" standalone="no"?><!DOCTYPE svg PUBLIC "-//W3C//DTD SVG 1.1//EN" "http://www.w3.org/Graphics/SVG/1.1/DTD/svg11.dtd"><svg t="1775137107169" class="icon" viewBox="0 0 1024 1024" version="1.1" xmlns="http://www.w3.org/2000/svg" p-id="5667" xmlns:xlink="http://www.w3.org/1999/xlink" width="200" height="200"><path d="M575.069091 68.421818A442.181818 442.181818 0 0 0 82.618182 507.810909v335.592727a105.425455 105.425455 0 0 0 105.658182 105.425455h336.523636a442.181818 442.181818 0 0 0 50.269091-880.407273z m-20.712727 595.083637a17.221818 17.221818 0 0 1-16.756364 14.196363h-62.603636a17.221818 17.221818 0 0 1-16.989091-20.014545l16.523636-94.952728h-83.781818L372.363636 663.505455a16.989091 16.989091 0 0 1-16.756363 14.196363h-61.672728a17.221818 17.221818 0 0 1-16.98909-20.014545L325.818182 373.527273a17.221818 17.221818 0 0 1 16.756363-14.196364h62.603637a17.221818 17.221818 0 0 1 16.989091 20.014546l-16.523637 94.952727h83.781819l17.454545-100.770909a16.989091 16.989091 0 0 1 16.756364-14.196364h62.603636a17.221818 17.221818 0 0 1 16.989091 20.014546z m164.305454 0a17.221818 17.221818 0 0 1-16.989091 13.963636h-62.603636a16.989091 16.989091 0 0 1-16.756364-20.014546l26.996364-152.436363a17.221818 17.221818 0 0 1 16.756364-14.196364h62.603636A17.221818 17.221818 0 0 1 744.727273 512z m40.261818-239.01091a17.221818 17.221818 0 0 1-16.756363 13.963637H679.563636a17.221818 17.221818 0 0 1-16.756363-20.247273l8.843636-45.847273a16.989091 16.989091 0 0 1 16.756364-13.730909h62.370909a16.989091 16.989091 0 0 1 16.756363 20.247273z" p-id="5668" fill="#25c18f"></path></svg>